<?xml version="1.0" standalone="no"?><!DOCTYPE svg PUBLIC "-//W3C//DTD SVG 1.1//EN" "http://www.w3.org/Graphics/SVG/1.1/DTD/svg11.dtd"><svg t="1703558575177" class="icon" viewBox="0 0 1024 1024" version="1.1" xmlns="http://www.w3.org/2000/svg" p-id="1145" xmlns:xlink="http://www.w3.org/1999/xlink" width="200" height="200"><path d="M893.8 112H130.2C120.16 112 112 118.44 112 126.4v115.2c0 7.96 8.16 14.4 18.2 14.4h763.64c10.04 0 18.2-6.44 18.2-14.4V126.4c0-7.96-8.16-14.4-18.2-14.4zM301.08 320H130.88c-10.44 0-18.92 14.32-18.92 32v528c0 17.68 8.48 32 18.92 32h170.2c10.44 0 18.92-14.32 18.92-32V352c0-17.68-8.48-32-18.92-32z" fill="#FA8C16" p-id="1146"></path><path d="M864 320H432c-26.52 0-48 14.32-48 32v528c0 17.68 21.48 32 48 32h432c26.52 0 48-14.32 48-32V352c0-17.68-21.48-32-48-32z" fill="#FFD591" p-id="1147"></path></svg>